Coordinates
version=1
nRows=19
nColumns=24
inDegrees=yes

Units are S.I. units (second, meters, Newtons, ...)
Angles are in degrees.

endheader
time	pelvis_tilt	pelvis_list	pelvis_rotation	pelvis_tx	pelvis_ty	pelvis_tz	hip_flexion_r	hip_adduction_r	hip_rotation_r	knee_angle_r	ankle_angle_r	subtalar_angle_r	mtp_angle_r	hip_flexion_l	hip_adduction_l	hip_rotation_l	knee_angle_l	ankle_angle_l	subtalar_angle_l	mtp_angle_l	lumbar_extension	lumbar_bending	lumbar_rotation
      1.08766667	     -1.65778769	      1.53583342	      0.00421025	      0.02871038	      0.98072002	      0.32159118	    -18.90636477	      0.69593341	     -3.83835596	     -2.93475895	     14.39556424	     -1.75353013	      2.57297292	     23.01469671	      2.52644507	      2.24564328	      4.34491714	     -1.81375744	     -7.53109589	      2.26364389	    -11.65439468	      2.44220827	      7.88964416
      1.09183333	     -1.65549287	      1.70179831	      0.01683558	      0.03469987	      0.97972000	      0.32099640	    -19.02359178	      0.45749232	     -4.08682318	     -3.49561474	     14.65554693	     -1.37728683	      2.79166130	     23.06049770	      2.80047209	      2.43494145	      4.16262588	     -2.03410332	     -7.78980784	      2.36861660	    -11.63959317	      2.24470134	      7.86778607
      1.09600000	     -1.65742583	      1.87989319	      0.03670023	      0.04070512	      0.97874509	      0.32037849	    -19.10814962	      0.20435762	     -4.35077726	     -4.11753725	     14.90018206	     -1.00581600	      3.07238987	     23.12212030	      3.09080247	      2.66418866	      3.88059935	     -2.28383041	     -8.11492985	      2.49746481	    -11.61122741	      2.02823272	      7.84193535
      1.10016667	     -1.66438648	      2.08502150	      0.04294621	      0.04673547	      0.97780942	      0.31977298	    -19.17488439	     -0.08335177	     -4.57140040	     -4.76493955	     15.14746482	     -0.65764150	      3.30816727	     23.21171267	      3.40621315	      2.82069456	      3.48436371	     -2.63602602	     -8.47867470	      2.59585101	    -11.57658080	      1.78477556	      7.80210643
      1.10433333	     -1.67058387	      2.30227181	      0.06313866	      0.05276522	      0.97689697	      0.31913930	    -19.21315878	     -0.38398820	     -4.81614523	     -5.47735876	     15.36772891	     -0.31483333	      3.56660979	     23.31353412	      3.73977374	      3.03251903	      3.00030192	     -3.00696660	     -8.90736842	      2.69934904	    -11.54134686	      1.51820243	      7.75912391
      1.10850000	     -1.68321957	      2.53425569	      0.08012659	      0.05880891	      0.97601187	      0.31849754	    -19.22514523	     -0.70377896	     -5.04630837	     -6.22899302	     15.56992834	     -0.00143435	      3.84062336	     23.44017017	      4.08910876	      3.22664939	      2.42237943	     -3.43343288	     -9.37600355	      2.80184570	    -11.50355049	      1.24301374	      7.70987617
      1.11266667	     -1.70728324	      2.77548923	      0.10424787	      0.06485506	      0.97514738	      0.31784031	    -19.20477952	     -1.03301328	     -5.25548780	     -7.02196986	     15.73929849	      0.26739160	      4.12485260	     23.59827125	      4.45174131	      3.41268590	      1.75697962	     -3.90364107	     -9.87873531	      2.90080632	    -11.45047327	      0.95198539	      7.65571977
      1.11683333	     -1.67893450	      3.04601075	      0.16901881	      0.07093494	      0.97436211	      0.31711313	    -19.24534663	     -1.38234932	     -5.53297659	     -7.81678951	     15.87568932	      0.56224218	      4.83252504	     23.70479233	      4.86388602	      3.69031440	      1.03345541	     -4.39335220	    -10.51216078	      3.14038229	    -11.47395546	      0.61524042	      7.59995013
      1.12100000	     -1.75396620	      3.28176244	      0.16292908	      0.07694964	      0.97351494	      0.31649379	    -19.10482655	     -1.71796591	     -5.62818458	     -8.73098235	     15.95993999	      0.69207495	      5.11261817	     23.96512837	      5.20848297	      3.75506963	      0.20023830	     -4.94585670	    -10.97174860	      3.21463618	    -11.36427748	      0.34846963	      7.52628607
      1.12516667	     -1.67412100	      3.59684834	      0.21094762	      0.08305435	      0.97288235	      0.31577151	    -19.15137567	     -2.12465546	     -5.89729225	     -9.62469542	     15.98667597	      0.92292088	      6.49137770	     24.01013405	      5.66159981	      4.00530591	     -0.56836601	     -5.62043949	    -11.73021514	      3.57264717	    -11.45429281	     -0.04053400	      7.44563649
      1.12933333	     -1.80950366	      3.81116889	      0.24272535	      0.08904567	      0.97200729	      0.31510939	    -18.91595289	     -2.42217326	     -5.92757816	    -10.59539363	     15.99660015	      0.92003275	      6.72407551	     24.40423999	      5.99993398	      4.05156545	     -1.60740227	     -6.06631358	    -12.14851478	      3.61099198	    -11.26645232	     -0.29896038	      7.37854725
      1.13350000	     -1.86622004	      4.07457875	      0.28239200	      0.09506509	      0.97126726	      0.31440128	    -18.73954470	     -2.77850781	     -6.05738316	    -11.62633213	     15.97906522	      1.02711345	      7.05286462	     24.67900411	      6.39533219	      4.17990439	     -2.59247596	     -6.64125685	    -12.77252265	      3.65059951	    -11.19647963	     -0.61084258	      7.30983603
      1.13766667	     -1.90392866	      4.33583187	      0.32754550	      0.10108105	      0.97059221	      0.31370153	    -18.57147192	     -3.12428322	     -6.14252904	    -12.67485056	     15.88522676	      1.03105959	      7.40696100	     24.94517611	      6.78940292	      4.28790094	     -3.61967816	     -7.19839854	    -13.36774111	      3.67751970	    -11.13704470	     -0.93335930	      7.22834201
      1.14183333	     -1.89683486	      4.60444902	      0.38678126	      0.10710947	      0.97001450	      0.31298688	    -18.45501665	     -3.46636828	     -6.20947312	    -13.69672227	     15.60296648	      0.83241310	     13.13472381	     25.16036377	      7.19979226	      4.43433729	     -4.66314564	     -7.71774116	    -14.03102016	      3.98256707	    -11.14909956	     -1.26249357	      7.10949476
      1.14600000	     -1.95430848	      4.85741604	      0.42965751	      0.11310860	      0.96938867	      0.31229172	    -18.20870073	     -3.80359678	     -6.25336849	    -14.84301367	     15.39300710	      0.77266404	     13.19102139	     25.47763347	      7.58041001	      4.45510532	     -5.78256198	     -8.15817855	    -14.47942648	      3.95875579	    -11.07195411	     -1.57947834	      7.06064390
      1.15016667	     -1.99184353	      5.10610767	      0.47480232	      0.11909179	      0.96882974	      0.31159165	    -17.96155260	     -4.13093257	     -6.26702540	    -16.02180684	     15.11957737	      0.62774678	     13.29134859	     25.76667550	      7.96040809	      4.51459900	     -6.90107337	     -8.57010417	    -14.99418514	      3.92233544	    -11.02673171	     -1.89017249	      6.98095360
      1.15433333	     -1.99178636	      5.37804736	      0.51776050	      0.12510757	      0.96836333	      0.31091307	    -17.75192951	     -4.47421895	     -6.25373239	    -17.19522660	     14.76182935	      0.39845060	     13.38691201	     26.01527835	      8.36108940	      4.54023231	     -8.04054150	     -8.85339229	    -15.44274954	      3.88781841	    -11.02960689	     -2.24708320	      6.89153762
      1.15850000	     -2.04169316	      5.59483291	      0.55709799	      0.13102969	      0.96786238	      0.31019287	    -17.40900858	     -4.77462148	     -6.24796437	    -18.50803812	     14.36883645	      0.22053848	     13.58442455	     26.31453113	      8.70981941	      4.61410914	     -9.16736200	     -9.20234103	    -15.96874851	      3.81980403	    -10.96762890	     -2.49646521	      6.82896567
      1.16266667	     -2.01949344	      5.84299665	      0.59373768	      0.13698875	      0.96749666	      0.30948102	    -17.14576569	     -5.10334980	     -6.24683328	    -19.79388415	     13.84665434	     -0.05404774	     18.07397248	     26.52508024	      9.09349327	      4.68504842	    -10.29623819	     -9.38763555	    -16.48011324	      2.40741123	    -11.00071376	     -2.79671698	      6.72282634
